<?xml version="1.0" standalone="no"?>
<!DOCTYPE svg PUBLIC "-//W3C//DTD SVG 20010904//EN"
 "http://www.w3.org/TR/2001/REC-SVG-20010904/DTD/svg10.dtd">
<svg version="1.0" xmlns="http://www.w3.org/2000/svg"
 width="527.000000pt" height="527.000000pt" viewBox="0 0 527.000000 527.000000"
 preserveAspectRatio="xMidYMid meet">
<metadata>
Created by potrace 1.11, written by Peter Selinger 2001-2013
</metadata>
<g transform="translate(0.000000,527.000000) scale(0.100000,-0.100000)"
fill="#000000" stroke="none">
<path d="M2515 4738 c-16 -5 -39 -11 -50 -13 -11 -3 -48 -19 -83 -36 -101 -49
-206 -165 -250 -274 -17 -43 -42 -165 -36 -179 3 -7 -6 -20 -20 -29 -23 -16
-38 -24 -141 -82 -22 -13 -96 -56 -165 -95 -69 -40 -156 -91 -195 -113 -38
-22 -82 -48 -96 -58 -25 -17 -26 -17 -51 4 -89 75 -118 92 -199 120 -105 37
-173 39 -312 13 -61 -11 -163 -72 -228 -136 -242 -237 -199 -635 88 -822 48
-31 189 -82 203 -73 16 10 19 -52 18 -380 0 -301 -5 -354 -28 -340 -12 7 -120
-31 -175 -62 -71 -39 -167 -138 -202 -208 -37 -73 -63 -174 -63 -241 0 -182
95 -359 242 -451 71 -44 100 -56 178 -74 175 -39 371 23 494 157 25 27 31 30
52 20 13 -6 24 -14 24 -18 0 -5 6 -8 13 -8 7 0 19 -6 25 -12 7 -7 16 -13 20
-13 4 0 34 -16 67 -36 99 -60 231 -136 358 -207 42 -24 80 -48 83 -54 4 -6 9
-33 11 -61 11 -128 80 -266 175 -352 49 -44 151 -101 196 -110 12 -2 26 -6 31
-9 21 -13 145 -17 206 -7 71 13 195 59 195 73 0 4 6 8 13 8 19 0 116 98 151
154 53 83 82 179 85 277 1 46 2 47 59 78 31 18 80 45 107 62 28 17 58 33 68
36 9 3 17 9 17 14 0 5 4 9 9 9 10 0 238 129 281 160 54 37 67 35 121 -19 68
-69 174 -126 274 -147 33 -7 137 -7 184 1 134 21 272 111 347 225 31 48 63
113 70 142 2 10 7 28 10 40 20 78 8 222 -24 301 -7 16 -12 32 -12 37 0 18 -76
118 -124 163 -61 58 -171 114 -252 130 l-59 12 -1 353 c-1 374 -3 355 39 352
1 0 27 7 57 16 155 45 275 150 343 299 10 22 20 47 22 55 2 8 8 34 13 56 15
67 7 192 -18 264 -32 93 -66 147 -133 212 -54 53 -172 123 -223 133 -10 2 -19
4 -19 5 0 5 -47 10 -100 12 -82 3 -187 -14 -212 -35 -7 -5 -13 -7 -13 -3 0 8
-98 -51 -144 -88 -38 -30 -76 -38 -76 -15 0 5 -5 9 -10 9 -6 0 -65 32 -133 71
-143 84 -176 103 -237 137 -25 13 -52 31 -61 38 -9 8 -18 12 -21 9 -3 -3 -11
1 -18 10 -7 8 -18 15 -25 15 -8 0 -15 3 -17 8 -1 4 -21 17 -43 29 -37 21 -40
25 -51 92 -28 168 -107 291 -239 375 -56 36 -123 65 -170 73 -54 9 -189 10
-220 1z m-361 -758 c10 -19 33 -56 51 -81 l33 -46 -92 -159 -92 -159 -234 0
-234 0 -12 48 c-7 26 -12 49 -12 50 -2 9 -17 49 -34 86 -10 24 -18 44 -16 45
24 18 392 226 399 226 5 0 9 5 9 10 0 6 4 10 10 10 5 0 47 22 92 49 l83 49 15
-47 c9 -25 24 -62 34 -81z m1296 -48 c135 -78 253 -147 263 -154 17 -12 16
-16 -6 -63 -13 -28 -30 -75 -37 -105 -7 -30 -14 -60 -15 -66 -2 -7 -85 -9
-251 -8 -284 2 -264 1 -264 14 0 6 -34 68 -75 139 -41 71 -75 134 -75 141 0 6
13 25 30 43 30 32 100 155 100 175 0 6 5 23 10 37 l10 27 33 -20 c17 -11 142
-83 277 -160z m-1079 -176 c46 -25 126 -53 169 -59 24 -4 25 -6 25 -83 l0 -79
-197 0 c-195 -1 -196 -1 -186 20 37 71 131 225 138 225 4 0 27 -11 51 -24z
m568 -48 c47 -84 64 -114 77 -133 28 -39 20 -41 -166 -41 l-180 1 0 77 c0 77
0 78 28 83 52 11 157 48 177 61 23 16 32 10 64 -48z m-949 -278 c0 -9 -155
-275 -164 -282 -5 -4 -22 2 -37 13 -15 10 -29 19 -32 19 -4 0 -187 102 -204
114 -2 2 27 129 32 136 4 6 405 7 405 0z m577 -353 l1 -357 -56 31 c-31 17
-61 34 -67 39 -5 4 -39 23 -75 43 -58 31 -212 118 -310 174 -19 11 -60 34 -91
52 l-57 32 88 152 c48 84 96 161 106 172 18 19 32 20 239 20 l220 0 2 -358z
m548 323 c12 -19 33 -55 47 -80 14 -25 39 -69 57 -98 17 -29 31 -57 31 -62 0
-4 3 -10 8 -12 4 -1 15 -17 24 -34 14 -25 15 -34 5 -42 -13 -10 -556 -331
-594 -351 l-23 -12 0 360 c0 329 1 360 17 363 9 2 104 3 211 3 l195 -1 22 -34z
m535 31 c4 -1 12 -29 19 -63 12 -60 12 -62 -11 -80 -13 -9 -26 -18 -30 -18 -3
0 -43 -22 -87 -50 -44 -27 -83 -50 -87 -50 -3 0 -17 -9 -31 -20 -14 -11 -29
-18 -33 -15 -8 5 -120 192 -120 201 0 3 -11 22 -25 42 -14 20 -25 41 -25 47 0
6 74 10 212 9 117 -1 215 -2 218 -3z m-2070 -269 c30 -16 71 -39 90 -50 19
-12 50 -29 68 -38 17 -9 32 -20 32 -24 0 -7 -54 -105 -106 -190 -8 -14 -31
-55 -52 -92 -39 -71 -51 -81 -59 -48 -3 11 -10 20 -15 20 -5 0 -7 4 -3 9 3 5
1 12 -4 15 -5 3 -35 52 -67 108 -31 57 -64 111 -72 121 -8 9 -11 17 -7 17 4 0
1 8 -8 18 -15 17 -13 21 39 72 31 30 63 67 72 82 10 17 20 24 26 19 6 -5 36
-22 66 -39z m2179 6 c17 -24 47 -56 66 -72 19 -16 35 -33 35 -37 0 -9 -197
-350 -209 -362 -4 -4 -28 27 -53 70 -25 43 -70 121 -101 173 -62 106 -62 108
10 145 21 10 62 34 91 52 29 18 56 33 60 33 4 0 18 9 32 20 14 11 28 20 32 20
4 0 20 -19 37 -42z m331 -205 c13 -2 26 -6 28 -8 5 -5 5 -695 0 -700 -2 -2
-17 -6 -33 -9 -17 -3 -58 -15 -92 -28 -35 -12 -65 -20 -67 -17 -14 14 -216
372 -216 383 0 7 10 29 23 47 13 19 30 48 38 64 8 17 52 93 97 171 l82 141 58
-20 c31 -10 68 -21 82 -24z m-2722 -123 c50 -88 92 -164 92 -170 0 -5 4 -10 9
-10 5 0 13 -10 17 -22 4 -13 11 -26 16 -29 10 -6 -1 -35 -31 -85 -11 -18 -54
-92 -96 -165 -42 -74 -81 -138 -85 -143 -5 -4 -30 -1 -57 8 -26 8 -67 18 -90
22 -40 6 -43 9 -43 38 -1 74 -1 556 0 611 l0 60 83 21 c45 12 84 22 87 22 3 1
47 -70 98 -158z m609 98 c59 -33 131 -74 158 -90 28 -16 75 -42 105 -58 30
-17 62 -35 70 -40 31 -20 188 -107 206 -114 15 -6 12 -10 -19 -31 -20 -14 -39
-25 -43 -25 -3 0 -25 -13 -48 -28 -22 -15 -48 -31 -56 -35 -8 -4 -24 -13 -35
-20 -11 -7 -49 -29 -85 -50 -36 -21 -72 -42 -80 -47 -98 -63 -305 -178 -312
-174 -4 3 -15 20 -23 37 -8 18 -26 50 -40 72 -14 22 -32 54 -40 70 -9 17 -31
55 -50 85 -19 30 -34 61 -35 68 0 6 -4 12 -10 12 -15 0 -12 28 8 63 9 18 20
34 23 37 3 3 27 43 53 90 78 139 137 240 141 240 2 0 52 -28 112 -62z m1498
-158 c59 -102 108 -190 108 -195 0 -6 -41 -83 -92 -172 l-93 -163 -67 37 c-36
20 -70 39 -76 43 -10 7 -52 31 -166 94 -217 121 -348 199 -345 205 3 4 35 25
73 47 37 22 147 87 243 144 96 56 200 118 230 136 43 27 57 31 66 21 6 -6 60
-95 119 -197z m-775 -247 c0 -5 10 -13 23 -18 46 -22 112 -60 115 -67 2 -5 8
-8 13 -8 5 0 71 -35 146 -78 76 -44 184 -105 241 -137 56 -32 102 -61 102 -65
0 -7 -75 -142 -138 -248 -18 -29 -32 -57 -32 -61 0 -5 -7 -15 -17 -22 -12 -11
-67 -14 -250 -15 l-233 0 0 363 c0 316 2 363 15 363 8 0 15 -3 15 -7z m-131
-357 c-1 -261 -4 -355 -12 -358 -10 -4 -460 -3 -479 1 -3 0 -39 58 -79 129
-40 70 -81 139 -91 154 l-18 26 52 33 c29 17 73 43 98 57 25 13 52 31 61 38 8
8 19 14 22 14 4 0 36 18 72 40 36 22 67 40 68 40 2 0 70 40 152 90 83 49 151
90 152 90 1 0 2 -159 2 -354z m-970 263 c17 -28 31 -52 31 -54 0 -2 27 -49 60
-105 33 -56 60 -105 60 -108 0 -7 -103 -71 -204 -127 l-49 -28 -21 29 c-12 16
-38 46 -59 66 -21 20 -37 43 -35 50 2 11 180 327 184 328 1 0 15 -23 33 -51z
m2146 -129 c52 -90 95 -167 95 -170 0 -4 -18 -26 -41 -50 -46 -48 -34 -49
-150 17 -36 21 -89 51 -117 67 -29 16 -49 32 -45 35 5 3 17 22 28 43 62 113
129 227 132 225 1 -2 45 -77 98 -167z m-252 -230 c26 -16 50 -30 53 -30 2 0
40 -21 84 -46 54 -32 77 -50 71 -58 -5 -6 -16 -38 -26 -72 l-17 -60 -194 0
c-190 1 -194 1 -188 21 3 11 13 31 22 45 9 14 27 45 40 70 14 25 31 52 38 61
8 8 14 18 14 22 0 11 42 77 49 77 4 0 28 -13 54 -30z m-1604 -142 c33 -59 61
-111 61 -116 0 -9 -365 -10 -374 -2 -3 3 -8 21 -11 39 -3 19 -10 41 -15 50 -7
12 17 31 123 93 118 70 132 76 142 60 7 -9 40 -65 74 -124z m130 -233 c11 -12
146 -243 178 -305 22 -44 22 -45 3 -65 -23 -24 -80 -138 -80 -159 0 -22 -14
-26 -41 -12 -70 37 -526 301 -537 311 -11 10 -9 22 7 66 12 30 24 74 27 99 3
25 7 50 8 55 0 6 6 12 13 15 23 9 413 4 422 -5z m541 6 c5 -1 9 -36 9 -81 l-1
-80 -41 -10 c-86 -23 -135 -42 -181 -70 -26 -17 -48 -30 -50 -30 -4 0 -29 42
-73 120 -11 19 -34 59 -52 88 -17 29 -31 56 -31 60 0 5 374 8 420 3z m516 -4
c4 -3 -18 -48 -48 -99 -31 -51 -64 -108 -74 -126 -10 -18 -21 -31 -24 -30 -3
2 -33 18 -67 36 -35 18 -90 39 -124 46 -34 8 -64 17 -67 20 -5 6 -3 146 3 155
4 8 393 6 401 -2z m571 0 c4 -4 8 -15 9 -25 12 -82 17 -107 30 -137 20 -49 18
-64 -11 -71 -14 -3 -25 -10 -25 -14 0 -4 -8 -10 -17 -13 -10 -3 -126 -68 -258
-145 l-240 -140 -36 77 c-20 42 -48 90 -63 108 l-26 31 30 54 c17 29 35 60 40
68 5 8 34 59 65 112 30 53 60 98 65 100 20 6 429 2 437 -5z"/>
</g>
</svg>
